<mxfile host="app.diagrams.net" modified="2022-05-20T08:36:52.968Z" agent="5.0 (Macintosh; Intel Mac OS X 10_15_7) AppleWebKit/537.36 (KHTML, like Gecko) Chrome/100.0.4896.127 Safari/537.36" etag="2W8oFG-TKvF0gWCoNoMz" version="18.0.1" type="github">
  <diagram name="Page-1" id="6133507b-19e7-1e82-6fc7-422aa6c4b21f">
    <mxGraphModel dx="734" dy="1154" grid="1" gridSize="10" guides="1" tooltips="1" connect="1" arrows="1" fold="1" page="1" pageScale="1" pageWidth="1100" pageHeight="850" background="none" math="0" shadow="0">
      <root>
        <mxCell id="0" />
        <mxCell id="1" parent="0" />
        <mxCell id="aOyMJ3sNn47DL4vsBSr6-13" value="" style="edgeStyle=orthogonalEdgeStyle;rounded=0;orthogonalLoop=1;jettySize=auto;html=1;" edge="1" parent="1" source="aOyMJ3sNn47DL4vsBSr6-1" target="aOyMJ3sNn47DL4vsBSr6-2">
          <mxGeometry relative="1" as="geometry" />
        </mxCell>
        <mxCell id="aOyMJ3sNn47DL4vsBSr6-40" style="edgeStyle=orthogonalEdgeStyle;rounded=0;orthogonalLoop=1;jettySize=auto;html=1;entryX=0;entryY=0.5;entryDx=0;entryDy=0;fontSize=12;dashed=1;" edge="1" parent="1" source="aOyMJ3sNn47DL4vsBSr6-1" target="aOyMJ3sNn47DL4vsBSr6-39">
          <mxGeometry relative="1" as="geometry" />
        </mxCell>
        <mxCell id="aOyMJ3sNn47DL4vsBSr6-1" value="&lt;font style=&quot;font-size: 12px;&quot;&gt;KAFKA CONSUMER CONNECTION&lt;/font&gt;" style="rhombus;whiteSpace=wrap;html=1;" vertex="1" parent="1">
          <mxGeometry x="95" y="50" width="190" height="80" as="geometry" />
        </mxCell>
        <mxCell id="aOyMJ3sNn47DL4vsBSr6-15" value="" style="edgeStyle=orthogonalEdgeStyle;rounded=0;orthogonalLoop=1;jettySize=auto;html=1;" edge="1" parent="1" source="aOyMJ3sNn47DL4vsBSr6-2" target="aOyMJ3sNn47DL4vsBSr6-4">
          <mxGeometry relative="1" as="geometry" />
        </mxCell>
        <mxCell id="aOyMJ3sNn47DL4vsBSr6-37" style="edgeStyle=orthogonalEdgeStyle;rounded=0;orthogonalLoop=1;jettySize=auto;html=1;dashed=1;" edge="1" parent="1" source="aOyMJ3sNn47DL4vsBSr6-2" target="aOyMJ3sNn47DL4vsBSr6-19">
          <mxGeometry relative="1" as="geometry">
            <Array as="points">
              <mxPoint x="690" y="210" />
              <mxPoint x="690" y="730" />
            </Array>
          </mxGeometry>
        </mxCell>
        <mxCell id="aOyMJ3sNn47DL4vsBSr6-2" value="valid payload" style="rhombus;whiteSpace=wrap;html=1;" vertex="1" parent="1">
          <mxGeometry x="100" y="170" width="180" height="80" as="geometry" />
        </mxCell>
        <mxCell id="aOyMJ3sNn47DL4vsBSr6-30" value="" style="edgeStyle=orthogonalEdgeStyle;rounded=0;orthogonalLoop=1;jettySize=auto;html=1;" edge="1" parent="1" source="aOyMJ3sNn47DL4vsBSr6-4" target="aOyMJ3sNn47DL4vsBSr6-27">
          <mxGeometry relative="1" as="geometry" />
        </mxCell>
        <mxCell id="aOyMJ3sNn47DL4vsBSr6-4" value="Prepare Mail" style="rhombus;whiteSpace=wrap;html=1;" vertex="1" parent="1">
          <mxGeometry x="100" y="310" width="180" height="80" as="geometry" />
        </mxCell>
        <mxCell id="aOyMJ3sNn47DL4vsBSr6-25" style="edgeStyle=orthogonalEdgeStyle;rounded=0;orthogonalLoop=1;jettySize=auto;html=1;entryX=0;entryY=0.5;entryDx=0;entryDy=0;" edge="1" parent="1" source="aOyMJ3sNn47DL4vsBSr6-5" target="aOyMJ3sNn47DL4vsBSr6-24">
          <mxGeometry relative="1" as="geometry" />
        </mxCell>
        <mxCell id="aOyMJ3sNn47DL4vsBSr6-35" style="edgeStyle=orthogonalEdgeStyle;rounded=0;orthogonalLoop=1;jettySize=auto;html=1;entryX=0.5;entryY=0;entryDx=0;entryDy=0;" edge="1" parent="1" source="aOyMJ3sNn47DL4vsBSr6-5" target="aOyMJ3sNn47DL4vsBSr6-23">
          <mxGeometry relative="1" as="geometry" />
        </mxCell>
        <mxCell id="aOyMJ3sNn47DL4vsBSr6-42" style="edgeStyle=orthogonalEdgeStyle;rounded=0;orthogonalLoop=1;jettySize=auto;html=1;entryX=0.658;entryY=1.05;entryDx=0;entryDy=0;entryPerimeter=0;fontSize=12;dashed=1;" edge="1" parent="1" source="aOyMJ3sNn47DL4vsBSr6-5" target="aOyMJ3sNn47DL4vsBSr6-39">
          <mxGeometry relative="1" as="geometry">
            <Array as="points">
              <mxPoint x="679" y="540" />
            </Array>
          </mxGeometry>
        </mxCell>
        <mxCell id="aOyMJ3sNn47DL4vsBSr6-5" value="mail sent" style="rhombus;whiteSpace=wrap;html=1;" vertex="1" parent="1">
          <mxGeometry x="100" y="540" width="180" height="80" as="geometry" />
        </mxCell>
        <mxCell id="aOyMJ3sNn47DL4vsBSr6-14" value="NO" style="text;html=1;align=center;verticalAlign=middle;resizable=0;points=[];autosize=1;strokeColor=none;fillColor=none;" vertex="1" parent="1">
          <mxGeometry x="270" y="180" width="30" height="20" as="geometry" />
        </mxCell>
        <mxCell id="aOyMJ3sNn47DL4vsBSr6-16" value="Yes" style="text;html=1;align=center;verticalAlign=middle;resizable=0;points=[];autosize=1;strokeColor=none;fillColor=none;" vertex="1" parent="1">
          <mxGeometry x="200" y="280" width="40" height="20" as="geometry" />
        </mxCell>
        <mxCell id="aOyMJ3sNn47DL4vsBSr6-19" value="Alert FAILED Prometheus" style="shape=parallelogram;perimeter=parallelogramPerimeter;whiteSpace=wrap;html=1;fixedSize=1;" vertex="1" parent="1">
          <mxGeometry x="480" y="700" width="120" height="60" as="geometry" />
        </mxCell>
        <mxCell id="aOyMJ3sNn47DL4vsBSr6-21" value="NO" style="text;html=1;align=center;verticalAlign=middle;resizable=0;points=[];autosize=1;strokeColor=none;fillColor=none;" vertex="1" parent="1">
          <mxGeometry x="260" y="550" width="30" height="20" as="geometry" />
        </mxCell>
        <mxCell id="aOyMJ3sNn47DL4vsBSr6-23" value="Alert SUCCESS&lt;br&gt;Prometheus" style="shape=parallelogram;perimeter=parallelogramPerimeter;whiteSpace=wrap;html=1;fixedSize=1;" vertex="1" parent="1">
          <mxGeometry x="130" y="700" width="120" height="60" as="geometry" />
        </mxCell>
        <mxCell id="aOyMJ3sNn47DL4vsBSr6-31" style="edgeStyle=orthogonalEdgeStyle;rounded=0;orthogonalLoop=1;jettySize=auto;html=1;entryX=1;entryY=0.5;entryDx=0;entryDy=0;" edge="1" parent="1" source="aOyMJ3sNn47DL4vsBSr6-24" target="aOyMJ3sNn47DL4vsBSr6-27">
          <mxGeometry relative="1" as="geometry">
            <Array as="points">
              <mxPoint x="540" y="460" />
            </Array>
          </mxGeometry>
        </mxCell>
        <mxCell id="aOyMJ3sNn47DL4vsBSr6-33" style="edgeStyle=orthogonalEdgeStyle;rounded=0;orthogonalLoop=1;jettySize=auto;html=1;entryX=0.5;entryY=0;entryDx=0;entryDy=0;" edge="1" parent="1" source="aOyMJ3sNn47DL4vsBSr6-24" target="aOyMJ3sNn47DL4vsBSr6-19">
          <mxGeometry relative="1" as="geometry" />
        </mxCell>
        <mxCell id="aOyMJ3sNn47DL4vsBSr6-24" value="Retry attempts exceeded&amp;nbsp;" style="rhombus;whiteSpace=wrap;html=1;" vertex="1" parent="1">
          <mxGeometry x="480" y="535" width="120" height="90" as="geometry" />
        </mxCell>
        <mxCell id="aOyMJ3sNn47DL4vsBSr6-29" value="" style="edgeStyle=orthogonalEdgeStyle;rounded=0;orthogonalLoop=1;jettySize=auto;html=1;" edge="1" parent="1" source="aOyMJ3sNn47DL4vsBSr6-27" target="aOyMJ3sNn47DL4vsBSr6-5">
          <mxGeometry relative="1" as="geometry" />
        </mxCell>
        <mxCell id="aOyMJ3sNn47DL4vsBSr6-41" style="edgeStyle=orthogonalEdgeStyle;rounded=0;orthogonalLoop=1;jettySize=auto;html=1;entryX=0.5;entryY=1;entryDx=0;entryDy=0;fontSize=12;dashed=1;" edge="1" parent="1" source="aOyMJ3sNn47DL4vsBSr6-27" target="aOyMJ3sNn47DL4vsBSr6-39">
          <mxGeometry relative="1" as="geometry">
            <Array as="points">
              <mxPoint x="660" y="420" />
            </Array>
          </mxGeometry>
        </mxCell>
        <mxCell id="aOyMJ3sNn47DL4vsBSr6-27" value="send mail" style="rhombus;whiteSpace=wrap;html=1;" vertex="1" parent="1">
          <mxGeometry x="100" y="420" width="180" height="80" as="geometry" />
        </mxCell>
        <mxCell id="aOyMJ3sNn47DL4vsBSr6-32" value="NO" style="text;html=1;align=center;verticalAlign=middle;resizable=0;points=[];autosize=1;strokeColor=none;fillColor=none;" vertex="1" parent="1">
          <mxGeometry x="540" y="515" width="30" height="20" as="geometry" />
        </mxCell>
        <mxCell id="aOyMJ3sNn47DL4vsBSr6-34" value="YES" style="text;html=1;align=center;verticalAlign=middle;resizable=0;points=[];autosize=1;strokeColor=none;fillColor=none;" vertex="1" parent="1">
          <mxGeometry x="485" y="625" width="40" height="20" as="geometry" />
        </mxCell>
        <mxCell id="aOyMJ3sNn47DL4vsBSr6-36" value="YES" style="text;html=1;align=center;verticalAlign=middle;resizable=0;points=[];autosize=1;strokeColor=none;fillColor=none;" vertex="1" parent="1">
          <mxGeometry x="190" y="640" width="40" height="20" as="geometry" />
        </mxCell>
        <mxCell id="aOyMJ3sNn47DL4vsBSr6-38" value="Mail Service Design" style="text;html=1;align=center;verticalAlign=middle;resizable=0;points=[];autosize=1;strokeColor=none;fillColor=none;strokeWidth=1;fontSize=16;fontStyle=0" vertex="1" parent="1">
          <mxGeometry x="10" y="10" width="160" height="20" as="geometry" />
        </mxCell>
        <mxCell id="aOyMJ3sNn47DL4vsBSr6-39" value="Tracing report" style="shape=parallelogram;perimeter=parallelogramPerimeter;whiteSpace=wrap;html=1;fixedSize=1;fontSize=12;strokeWidth=1;" vertex="1" parent="1">
          <mxGeometry x="600" y="60" width="120" height="60" as="geometry" />
        </mxCell>
      </root>
    </mxGraphModel>
  </diagram>
</mxfile>
